<svg xmlns="http://www.w3.org/2000/svg" version="1.1" xmlns:xlink="http://www.w3.org/1999/xlink" xmlns:svgjs="http://svgjs.com/svgjs" width="1680" height="1050" preserveAspectRatio="none" viewBox="0 0 1680 1050"><g mask="url(&quot;#SvgjsMask1450&quot;)" fill="none"><rect width="1680" height="1050" x="0" y="0" fill="url(#SvgjsRadialGradient1451)"></rect><path d="M161.89 1206.26C386.37 1107.03 395.01 424.55 720.44 398.91 1045.87 373.27 999.71 530.16 1278.98 530.16 1558.26 530.16 1694.09 399.79 1837.53 398.91" stroke="rgba(224, 224, 224, 1)" stroke-width="2"></path><path d="M939.28 1118.62C1038.84 1109.55 975.88 930.43 1275.62 902.29 1575.36 874.15 1748.12 480.36 1948.3 461.29" stroke="rgba(224, 224, 224, 1)" stroke-width="2"></path><path d="M424.12 1202.53C598.19 1161.89 660.45 703.26 930.1 697.34 1199.74 691.42 1183.08 828.59 1436.07 828.59 1689.06 828.59 1811.37 698.4 1942.05 697.34" stroke="rgba(224, 224, 224, 1)" stroke-width="2"></path><path d="M175.29 1121.5C410.61 1103.28 523 664.45 984.54 635.23 1446.09 606.01 1567.35 237.17 1793.8 225.73" stroke="rgba(224, 224, 224, 1)" stroke-width="2"></path><path d="M862.85 1154.47C1033.94 954.32 898.19 181.38 1190.88 153.62 1483.57 125.86 1660.56 499.31 1846.94 510.62" stroke="rgba(224, 224, 224, 1)" stroke-width="2"></path></g><defs><mask id="SvgjsMask1450"><rect width="1680" height="1050" fill="#ffffff"></rect></mask><radialGradient cx="0%" cy="0%" r="1981.14" gradientUnits="userSpaceOnUse" id="SvgjsRadialGradient1451"><stop stop-color="rgba(224, 224, 224, 1)" offset="0"></stop><stop stop-color="rgba(255, 255, 255, 1)" offset="1"></stop></radialGradient></defs></svg>